<svg data-v-70b83f88="" version="1.0" xmlns="http://www.w3.org/2000/svg" xmlns:xlink="http://www.w3.org/1999/xlink" width="100%" height="100%" viewBox="0 0 340.000000 250.000000" preserveAspectRatio="xMidYMid meet" color-interpolation-filters="sRGB" style="margin: auto;"> <rect data-v-70b83f88="" x="0" y="0" width="100%" height="100%" fill="#feffff" fill-opacity="0" class="background"></rect> <rect data-v-70b83f88="" x="0" y="0" width="100%" height="100%" fill="url(#watermark)" fill-opacity="1" class="watermarklayer"></rect> <g data-v-70b83f88="" fill="#333" class="iconlettersvg-g iconlettersvg" transform="translate(46.84202575683594,98.30745697021484)"><g><g class="tp-name" transform="matrix(1,0,0,1,0,0)" opacity="1"><g transform="scale(1)"><g transform="translate(0, 0)"><g class="name-imagesvg"><g><rect fill="#333" fill-opacity="0" stroke-width="2" x="0" y="0" width="49.46315622817591" height="39.229063619307524" class="image-rect"></rect> <svg filter="url(#colors8706523279)" x="0" y="0" width="49.46315622817591" height="39.229063619307524" filtersec="colorsb4299616317" class="image-svg-svg primary" style="overflow: visible;"><svg xmlns="http://www.w3.org/2000/svg" viewBox="0 0 59.5 47.22"><path d="M57.81 3.14C56.1 1 53.57 0 50.21 0H13.67l-3.31 11.44h33.25c.64 0 .86.28.67.85L42.05 20a1.05 1.05 0 0 1-1.15.86H22l1.71-6H9.36L0 47.22h14.33l4.45-15.47h7l7.77 15.45H50l-9.22-15.47h.29q6.23 0 10-3.19A15.59 15.59 0 0 0 56.12 21l2.94-10.23a7.88 7.88 0 0 0-1.25-7.63z" fill="#333"></path></svg></svg> <defs><filter id="colors8706523279"><feColorMatrix type="matrix" values="0 0 0 0 0.19921875  0 0 0 0 0.19921875  0 0 0 0 0.19921875  0 0 0 1 0" class="icon-fecolormatrix"></feColorMatrix></filter> <filter id="colorsf1468599483"><feColorMatrix type="matrix" values="0 0 0 0 0.99609375  0 0 0 0 0.99609375  0 0 0 0 0.99609375  0 0 0 1 0" class="icon-fecolormatrix"></feColorMatrix></filter> <filter id="colorsb4299616317"><feColorMatrix type="matrix" values="0 0 0 0 0  0 0 0 0 0  0 0 0 0 0  0 0 0 1 0" class="icon-fecolormatrix"></feColorMatrix></filter></defs></g></g></g><g transform="translate(49.46315622817591, 0)"><g class="name-imagesvg"><g><rect fill="#333" fill-opacity="0" stroke-width="2" x="0" y="0" width="49.97373708002046" height="39.229063619307524" class="image-rect"></rect> <svg filter="url(#colors7432808828)" x="0" y="0" width="49.97373708002046" height="39.229063619307524" filtersec="colorsb8380204183" class="image-svg-svg primary" style="overflow: visible;"><svg xmlns="http://www.w3.org/2000/svg" viewBox="0 0 60.15 47.22"><path d="M41 26.19H20.4l3.78-13.17a2.2 2.2 0 0 1 2.33-1.64H43.4c1.21 0 1.65.54 1.32 1.64l-2.78 9.68h14.32l3.46-12c.86-3 .44-5.56-1.26-7.63S54.23 0 50.87 0H22q-8.34 0-11.47 10.77L0 47.22h14.33l3.3-11.41h20.54L34.86 47.2h14.33l6.07-21z" fill="#333"></path></svg></svg> <defs><filter id="colors7432808828"><feColorMatrix type="matrix" values="0 0 0 0 0.19921875  0 0 0 0 0.19921875  0 0 0 0 0.19921875  0 0 0 1 0" class="icon-fecolormatrix"></feColorMatrix></filter> <filter id="colorsf6322641901"><feColorMatrix type="matrix" values="0 0 0 0 0.99609375  0 0 0 0 0.99609375  0 0 0 0 0.99609375  0 0 0 1 0" class="icon-fecolormatrix"></feColorMatrix></filter> <filter id="colorsb8380204183"><feColorMatrix type="matrix" values="0 0 0 0 0  0 0 0 0 0  0 0 0 0 0  0 0 0 1 0" class="icon-fecolormatrix"></feColorMatrix></filter></defs></g></g></g><g transform="translate(99.43689330819637, 0)"><g class="name-imagesvg"><g><rect fill="#333" fill-opacity="0" stroke-width="2" x="0" y="0" width="49.41217622647437" height="39.229063619307524" class="image-rect"></rect> <svg filter="url(#colors4270105483)" x="0" y="0" width="49.41217622647437" height="39.229063619307524" filtersec="colorsb5964307322" class="image-svg-svg primary" style="overflow: visible;"><svg xmlns="http://www.w3.org/2000/svg" viewBox="0 0 59.49 47.23"><g fill="#333"><path d="M37.36 11.45h18.76l.07-.04L59.49 0 13.66.03l-3.3 11.41 27.04-.02-.04.03zM51.32 14.91h-18.8L3.31 35.82 0 47.23l45.83-.03 3.3-11.41-26.82.02 29.01-20.9z"></path></g></svg></svg> <defs><filter id="colors4270105483"><feColorMatrix type="matrix" values="0 0 0 0 0.19921875  0 0 0 0 0.19921875  0 0 0 0 0.19921875  0 0 0 1 0" class="icon-fecolormatrix"></feColorMatrix></filter> <filter id="colorsf4114271190"><feColorMatrix type="matrix" values="0 0 0 0 0.99609375  0 0 0 0 0.99609375  0 0 0 0 0.99609375  0 0 0 1 0" class="icon-fecolormatrix"></feColorMatrix></filter> <filter id="colorsb5964307322"><feColorMatrix type="matrix" values="0 0 0 0 0  0 0 0 0 0  0 0 0 0 0  0 0 0 1 0" class="icon-fecolormatrix"></feColorMatrix></filter></defs></g></g></g><g transform="translate(148.84906953467075, 0)"><g class="name-imagesvg"><g><rect fill="#333" fill-opacity="0" stroke-width="2" x="0" y="0" width="48.00370666278426" height="39.229063619307524" class="image-rect"></rect> <svg filter="url(#colors269095856)" x="0" y="0" width="48.00370666278426" height="39.229063619307524" filtersec="colorsb297444565" class="image-svg-svg primary" style="overflow: visible;"><svg xmlns="http://www.w3.org/2000/svg" viewBox="0 0 57.78 47.21"><path d="M35.11 35.76a2.3 2.3 0 0 1-.26 0H15.92c-.64 0-.89-.28-.75-.85l6.57-22.68a1.17 1.17 0 0 1 1.26-.81h18.9c.63 0 .86.28.67.85l-5.8 20h14.37l6.21-21.56c.85-3 .43-5.56-1.27-7.63S51.86 0 48.49 0h-27a13 13 0 0 0-8.7 3.12 15.3 15.3 0 0 0-5 7.63L.47 36.47Q-.89 41 1.69 44.1c1.73 2.08 4.31 3.11 7.63 3.11h27A12.9 12.9 0 0 0 45 44.08a16 16 0 0 0 5-7.64l.2-.68z" fill="#333"></path></svg></svg> <defs><filter id="colors269095856"><feColorMatrix type="matrix" values="0 0 0 0 0.19921875  0 0 0 0 0.19921875  0 0 0 0 0.19921875  0 0 0 1 0" class="icon-fecolormatrix"></feColorMatrix></filter> <filter id="colorsf7876717183"><feColorMatrix type="matrix" values="0 0 0 0 0.99609375  0 0 0 0 0.99609375  0 0 0 0 0.99609375  0 0 0 1 0" class="icon-fecolormatrix"></feColorMatrix></filter> <filter id="colorsb297444565"><feColorMatrix type="matrix" values="0 0 0 0 0  0 0 0 0 0  0 0 0 0 0  0 0 0 1 0" class="icon-fecolormatrix"></feColorMatrix></filter></defs></g></g></g><g transform="translate(196.852776197455, 0)"><g class="name-imagesvg"><g><rect fill="#333" fill-opacity="0" stroke-width="2" x="0" y="0" width="49.46315622817591" height="39.229063619307524" class="image-rect"></rect> <svg filter="url(#colors6314913553)" x="0" y="0" width="49.46315622817591" height="39.229063619307524" filtersec="colorsb7609437784" class="image-svg-svg primary" style="overflow: visible;"><svg xmlns="http://www.w3.org/2000/svg" viewBox="0 0 59.5 47.22"><path d="M57.81 3.14C56.1 1 53.57 0 50.21 0H13.67l-3.31 11.44h33.25c.64 0 .86.28.67.85L42.05 20a1.05 1.05 0 0 1-1.15.86H22l1.71-6H9.36L0 47.22h14.33l4.45-15.47h7l7.77 15.45H50l-9.22-15.47h.29q6.23 0 10-3.19A15.59 15.59 0 0 0 56.12 21l2.94-10.23a7.88 7.88 0 0 0-1.25-7.63z" fill="#333"></path></svg></svg> <defs><filter id="colors6314913553"><feColorMatrix type="matrix" values="0 0 0 0 0.19921875  0 0 0 0 0.19921875  0 0 0 0 0.19921875  0 0 0 1 0" class="icon-fecolormatrix"></feColorMatrix></filter> <filter id="colorsf4459768329"><feColorMatrix type="matrix" values="0 0 0 0 0.99609375  0 0 0 0 0.99609375  0 0 0 0 0.99609375  0 0 0 1 0" class="icon-fecolormatrix"></feColorMatrix></filter> <filter id="colorsb7609437784"><feColorMatrix type="matrix" values="0 0 0 0 0  0 0 0 0 0  0 0 0 0 0  0 0 0 1 0" class="icon-fecolormatrix"></feColorMatrix></filter></defs></g></g></g></g></g></g> <g data-gra="path-slogan" fill-rule="" class="tp-slogan" fill="#333" transform="matrix(1,0,0,1,95.2989848983334,45.229087829589844)" opacity="0.9212261985035737"><!----> <!----> <g transform="scale(1, 1)"><g transform="scale(1)"><path d="M0.50-1.02L1.10-1.72Q1.52-1.27 2.09-1.00Q2.66-0.73 3.28-0.73L3.28-0.73Q4.06-0.73 4.49-1.09Q4.92-1.44 4.92-2.02L4.92-2.02Q4.92-2.32 4.82-2.53Q4.72-2.74 4.54-2.89Q4.37-3.04 4.13-3.16Q3.89-3.28 3.61-3.41L3.61-3.41L2.48-3.90Q2.21-4.02 1.92-4.19Q1.63-4.36 1.40-4.60Q1.18-4.84 1.03-5.17Q0.89-5.50 0.89-5.93L0.89-5.93Q0.89-6.37 1.07-6.76Q1.26-7.14 1.59-7.42Q1.92-7.70 2.37-7.86Q2.82-8.02 3.36-8.02L3.36-8.02Q4.07-8.02 4.67-7.75Q5.27-7.48 5.69-7.04L5.69-7.04L5.15-6.40Q4.79-6.74 4.35-6.94Q3.91-7.14 3.36-7.14L3.36-7.14Q2.70-7.14 2.30-6.83Q1.90-6.53 1.90-5.99L1.90-5.99Q1.90-5.70 2.01-5.50Q2.12-5.30 2.32-5.15Q2.51-5.00 2.74-4.89Q2.96-4.78 3.20-4.68L3.20-4.68L4.32-4.20Q4.66-4.06 4.96-3.87Q5.26-3.68 5.47-3.44Q5.69-3.19 5.81-2.86Q5.94-2.53 5.94-2.10L5.94-2.10Q5.94-1.63 5.75-1.22Q5.57-0.82 5.22-0.51Q4.87-0.20 4.38-0.03Q3.89 0.14 3.26 0.14L3.26 0.14Q2.44 0.14 1.73-0.17Q1.02-0.48 0.50-1.02L0.50-1.02ZM7.49 0L7.49-7.87L9.90-7.87Q10.55-7.87 11.09-7.75Q11.63-7.63 12.01-7.36Q12.38-7.09 12.59-6.65Q12.80-6.20 12.80-5.56L12.80-5.56Q12.80-4.93 12.59-4.48Q12.38-4.02 12-3.72Q11.62-3.42 11.08-3.27Q10.55-3.12 9.90-3.12L9.90-3.12L8.48-3.12L8.48 0L7.49 0ZM8.48-3.94L9.78-3.94Q10.81-3.94 11.31-4.33Q11.81-4.72 11.81-5.56L11.81-5.56Q11.81-6.41 11.30-6.74Q10.80-7.07 9.78-7.07L9.78-7.07L8.48-7.07L8.48-3.94ZM17.30 0.14L17.30 0.14Q16.56 0.14 15.94-0.14Q15.32-0.43 14.88-0.97Q14.44-1.50 14.19-2.26Q13.94-3.02 13.94-3.97L13.94-3.97Q13.94-4.92 14.19-5.67Q14.44-6.42 14.88-6.94Q15.32-7.46 15.94-7.74Q16.56-8.02 17.30-8.02L17.30-8.02Q18.05-8.02 18.67-7.73Q19.28-7.45 19.73-6.93Q20.18-6.41 20.43-5.66Q20.68-4.91 20.68-3.97L20.68-3.97Q20.68-3.02 20.43-2.26Q20.18-1.50 19.73-0.97Q19.28-0.43 18.67-0.14Q18.05 0.14 17.30 0.14ZM17.30-0.73L17.30-0.73Q17.83-0.73 18.26-0.96Q18.68-1.19 18.99-1.61Q19.30-2.04 19.46-2.63Q19.63-3.23 19.63-3.97L19.63-3.97Q19.63-4.70 19.46-5.29Q19.30-5.88 18.99-6.29Q18.68-6.70 18.26-6.92Q17.83-7.14 17.30-7.14L17.30-7.14Q16.78-7.14 16.35-6.92Q15.92-6.70 15.62-6.29Q15.31-5.88 15.14-5.29Q14.98-4.70 14.98-3.97L14.98-3.97Q14.98-3.23 15.14-2.63Q15.31-2.04 15.62-1.61Q15.92-1.19 16.35-0.96Q16.78-0.73 17.30-0.73ZM23.36-7.07L23.36-4.14L24.68-4.14Q25.61-4.14 26.10-4.52Q26.59-4.90 26.59-5.66L26.59-5.66Q26.59-6.44 26.10-6.76Q25.61-7.07 24.68-7.07L24.68-7.07L23.36-7.07ZM27.82 0L26.69 0L24.79-3.32L23.36-3.32L23.36 0L22.37 0L22.37-7.87L24.83-7.87Q25.43-7.87 25.94-7.76Q26.45-7.64 26.81-7.38Q27.18-7.12 27.38-6.70Q27.59-6.28 27.59-5.66L27.59-5.66Q27.59-4.74 27.11-4.19Q26.63-3.64 25.82-3.43L25.82-3.43L27.82 0ZM30.73 0L30.73-7.03L28.36-7.03L28.36-7.87L34.12-7.87L34.12-7.03L31.74-7.03L31.74 0L30.73 0ZM34.49-1.02L35.09-1.72Q35.51-1.27 36.08-1.00Q36.65-0.73 37.26-0.73L37.26-0.73Q38.04-0.73 38.47-1.09Q38.90-1.44 38.90-2.02L38.90-2.02Q38.90-2.32 38.80-2.53Q38.70-2.74 38.53-2.89Q38.35-3.04 38.11-3.16Q37.87-3.28 37.60-3.41L37.60-3.41L36.47-3.90Q36.19-4.02 35.90-4.19Q35.62-4.36 35.39-4.60Q35.16-4.84 35.02-5.17Q34.87-5.50 34.87-5.93L34.87-5.93Q34.87-6.37 35.06-6.76Q35.24-7.14 35.57-7.42Q35.90-7.70 36.35-7.86Q36.80-8.02 37.34-8.02L37.34-8.02Q38.05-8.02 38.65-7.75Q39.25-7.48 39.67-7.04L39.67-7.04L39.13-6.40Q38.77-6.74 38.33-6.94Q37.90-7.14 37.34-7.14L37.34-7.14Q36.68-7.14 36.28-6.83Q35.88-6.53 35.88-5.99L35.88-5.99Q35.88-5.70 35.99-5.50Q36.11-5.30 36.30-5.15Q36.49-5.00 36.72-4.89Q36.95-4.78 37.19-4.68L37.19-4.68L38.30-4.20Q38.64-4.06 38.94-3.87Q39.24-3.68 39.46-3.44Q39.67-3.19 39.80-2.86Q39.92-2.53 39.92-2.10L39.92-2.10Q39.92-1.63 39.74-1.22Q39.55-0.82 39.20-0.51Q38.86-0.20 38.36-0.03Q37.87 0.14 37.25 0.14L37.25 0.14Q36.42 0.14 35.71-0.17Q35.00-0.48 34.49-1.02L34.49-1.02Z" transform="translate(-0.504, 8.016)"></path></g></g></g></g><defs v-gra="od"></defs></svg>